Coordinates
version=1
nRows=13
nColumns=22
inDegrees=yes

Units are S.I. units (second, meters, Newtons, ...)
If the header above contains a line with 'inDegrees', this indicates whether rotational values are in degrees (yes) or radians (no).

endheader
time	pelvis_tilt	pelvis_list	pelvis_rotation	pelvis_tx	pelvis_ty	pelvis_tz	hip_flexion_r	hip_adduction_r	hip_rotation_r	knee_angle_r	ankle_angle_r	subtalar_angle_r	hip_flexion_l	hip_adduction_l	hip_rotation_l	knee_angle_l	ankle_angle_l	subtalar_angle_l	lumbar_extension	lumbar_bending	lumbar_rotation
      2.52000000	     -3.88571468	      8.66388046	    -54.58989168	      0.20507863	      0.97411180	      0.00805244	     37.63913397	     -1.57823178	    -10.16236657	    -35.47432811	     14.94218148	     -5.04325974	     14.33642531	     -0.18887147	     -5.85040091	    -22.06265219	     22.98286624	      1.10634321	     -3.63683935	     -1.37083882	      1.45251761
      2.53000000	     -3.88551999	      8.59691277	    -55.00719608	      0.20868395	      0.97357401	      0.01363397	     37.94419663	     -1.41764979	    -10.57030071	    -33.85892624	     14.29309600	     -4.80531937	     13.74606933	     -0.29456539	     -6.24805405	    -21.95915198	     23.39339571	      1.03075499	     -3.76968741	     -1.29031149	      1.38615845
      2.54000000	     -3.84966841	      8.52517232	    -55.40182496	      0.21235345	      0.97301716	      0.01932226	     38.19914117	     -1.31458441	    -11.01468728	    -32.28235870	     13.70504427	     -4.55630837	     13.10832022	     -0.35940534	     -6.63119878	    -21.82657211	     23.77813933	      0.96406919	     -3.92134750	     -1.23167693	      1.29698304
      2.55000000	     -3.81577884	      8.48364314	    -55.76644371	      0.21605855	      0.97234753	      0.02509846	     38.46062749	     -1.25557710	    -11.48764462	    -30.74933736	     13.19705560	     -4.31668380	     12.49416294	     -0.39901666	     -7.00241720	    -21.69250199	     24.13200097	      0.90209568	     -4.03198407	     -1.18659924	      1.18280721
      2.56000000	     -3.73023152	      8.41618401	    -56.10585565	      0.21986628	      0.97169273	      0.03099494	     38.64939674	     -1.26652811	    -12.02602905	    -29.27917397	     12.82908310	     -4.03439366	     11.79461615	     -0.39042657	     -7.33404805	    -21.51033235	     24.49257677	      0.84512743	     -4.18997537	     -1.16505138	      1.05912972
      2.57000000	     -3.61932848	      8.35318493	    -56.41974352	      0.22375207	      0.97097730	      0.03700933	     38.81293010	     -1.33530926	    -12.60919151	    -27.88012536	     12.60627567	     -3.73518200	     11.06589558	     -0.34380778	     -7.64234492	    -21.30390465	     24.84125149	      0.79241015	     -4.34612090	     -1.16425987	      0.93154173
      2.58000000	     -3.49971878	      8.30553600	    -56.70432511	      0.22771969	      0.97016922	      0.04313138	     38.96801963	     -1.44925770	    -13.21183473	    -26.54802475	     12.49536788	     -3.45923589	     10.33815685	     -0.26935979	     -7.93268822	    -21.09242018	     25.17552758	      0.74421154	     -4.47602996	     -1.17001165	      0.79088114
      2.59000000	     -3.36899443	      8.25980130	    -56.96184665	      0.23172321	      0.96928777	      0.04938680	     39.09960070	     -1.59564723	    -13.82077624	    -25.28197827	     12.47769112	     -3.22571420	      9.60184150	     -0.17833167	     -8.20210515	    -20.88313072	     25.49546815	      0.70160931	     -4.59932647	     -1.18666007	      0.64360047
      2.60000000	     -3.22643793	      8.22515289	    -57.19330902	      0.23578415	      0.96831611	      0.05576394	     39.21477067	     -1.77815565	    -14.41532770	    -24.08233453	     12.53145804	     -3.06145888	      8.86846851	     -0.06414125	     -8.45243708	    -20.68322118	     25.80128820	      0.66908526	     -4.70453663	     -1.21178463	      0.48707097
      2.61000000	     -3.06961278	      8.19225470	    -57.39834649	      0.23988565	      0.96726951	      0.06226342	     39.30286457	     -1.99179857	    -14.98148062	    -22.95140044	     12.64080546	     -2.96823941	      8.13223094	      0.06716814	     -8.68121182	    -20.49905528	     26.08953494	      0.65059220	     -4.80589668	     -1.24473801	      0.32563887
      2.62000000	     -2.89694903	      8.15985733	    -57.57391669	      0.24401530	      0.96615120	      0.06888632	     39.36045153	     -2.23709258	    -15.51234005	    -21.89160999	     12.79785582	     -2.94232349	      7.39610442	      0.21376255	     -8.88370823	    -20.34026062	     26.36441350	      0.65069639	     -4.90584490	     -1.28793356	      0.15491642
      2.63000000	     -2.70940502	      8.11763617	    -57.72888133	      0.24816877	      0.96498540	      0.07565113	     39.37564218	     -2.50278025	    -16.00069415	    -20.90304313	     12.98226737	     -2.97195926	      6.64895958	      0.36617343	     -9.06711367	    -20.20492819	     26.61791770	      0.67540437	     -5.01292013	     -1.33272750	     -0.01178906
      2.64000000	     -2.50748749	      8.07988187	    -57.84920785	      0.25234104	      0.96375589	      0.08253832	     39.36189966	     -2.80445744	    -16.45423973	    -19.99563177	     13.21518337	     -3.04502965	      5.91602559	      0.53026714	     -9.21376637	    -20.11167017	     26.86077292	      0.72808765	     -5.11567347	     -1.38995191	     -0.19496078
